<svg xmlns="http://www.w3.org/2000/svg" viewBox="0 0 200 200" width="200" height="200">
  <defs>
    <linearGradient id="heartGrad" x1="0%" y1="0%" x2="100%" y2="100%">
      <stop offset="0%" style="stop-color:#7FAF9B"/>
      <stop offset="100%" style="stop-color:#D7B56D"/>
    </linearGradient>
  </defs>
  <path fill="url(#heartGrad)" d="M100 180c-5-5-80-55-80-100 0-30 25-55 55-55 20 0 35 15 45 30 10-15 25-30 45-30 30 0 55 25 55 55 0 45-75 95-80 100l-20 15-20-15z"/>
  <path fill="none" stroke="white" stroke-width="4" d="M40 100c30-20 60-20 90 0M50 120c25-15 50-15 75 0" opacity="0.6"/>
</svg>
