<svg xmlns="http://www.w3.org/2000/svg" viewBox="0 0 64 64" width="64" height="64">
  <defs>
    <linearGradient id="heartGrad" x1="0%" y1="0%" x2="100%" y2="100%">
      <stop offset="0%" style="stop-color:#7FAF9B"/>
      <stop offset="100%" style="stop-color:#5A8A7A"/>
    </linearGradient>
  </defs>
  <circle cx="32" cy="32" r="30" fill="url(#heartGrad)" opacity="0.15"/>
  <path 
    d="M32 56c-1.5 0-2.8-.5-3.9-1.3C16 45 12 38 12 30c0-6.6 5.4-12 12-12 3.7 0 7 1.7 8 4.3 1-2.6 4.3-4.3 8-4.3 6.6 0 12 5.4 12 12 0 8-4 15-16.1 24.7-1.1.8-2.4 1.3-3.9 1.3z" 
    fill="url(#heartGrad)"
  />
  <path 
    d="M20 32c0-8 12-12 12-4s12-4 12 4" 
    stroke="#fff" 
    stroke-width="2" 
    fill="none" 
    opacity="0.6"
    stroke-linecap="round"
  />
</svg>
