<svg xmlns="http://www.w3.org/2000/svg" viewBox="0 0 48 48" width="48" height="48">
  <defs>
    <linearGradient id="heartGradient" x1="0%" y1="0%" x2="100%" y2="100%">
      <stop offset="0%" style="stop-color:#8fbf9f"/>
      <stop offset="100%" style="stop-color:#2f5d5d"/>
    </linearGradient>
    <linearGradient id="glowGradient" x1="0%" y1="0%" x2="100%" y2="100%">
      <stop offset="0%" style="stop-color:#eac33b"/>
      <stop offset="100%" style="stop-color:#f4c7c3"/>
    </linearGradient>
  </defs>
  
  <!-- Outer glow circle -->
  <circle cx="24" cy="24" r="22" fill="none" stroke="url(#glowGradient)" stroke-width="2" opacity="0.5"/>
  
  <!-- Heart shape -->
  <path d="M24 42c-1.5 0-2.7-.6-3.5-1.3C14.2 35.2 6 28 6 19.5 6 13.2 11.2 8 17.5 8c3.5 0 6.7 1.8 8.5 4.5C27.8 9.8 31 8 34.5 8 40.8 8 46 13.2 46 19.5c0 8.5-8.2 15.7-14.5 21.2-.8.7-2 1.3-3.5 1.3h-4z" 
        fill="url(#heartGradient)"/>
  
  <!-- Inner sparkle -->
  <circle cx="19" cy="18" r="3" fill="white" opacity="0.3"/>
  <circle cx="16" cy="21" r="1.5" fill="white" opacity="0.2"/>
</svg>
