<svg xmlns="http://www.w3.org/2000/svg" viewBox="0 0 600 600" width="600" height="600" role="img" aria-label="Flower of Life sacred geometry pattern" fill="none" stroke="currentColor" stroke-width="1.2">
  <g opacity="0.9">
    <circle cx="300" cy="300" r="60"/>
    <circle cx="300" cy="240" r="60"/>
    <circle cx="300" cy="360" r="60"/>
    <circle cx="248" cy="270" r="60"/>
    <circle cx="248" cy="330" r="60"/>
    <circle cx="352" cy="270" r="60"/>
    <circle cx="352" cy="330" r="60"/>
    <circle cx="300" cy="180" r="60"/>
    <circle cx="300" cy="420" r="60"/>
    <circle cx="196" cy="240" r="60"/>
    <circle cx="196" cy="360" r="60"/>
    <circle cx="404" cy="240" r="60"/>
    <circle cx="404" cy="360" r="60"/>
    <circle cx="248" cy="150" r="60"/>
    <circle cx="248" cy="450" r="60"/>
    <circle cx="352" cy="150" r="60"/>
    <circle cx="352" cy="450" r="60"/>
    <circle cx="144" cy="270" r="60"/>
    <circle cx="144" cy="330" r="60"/>
    <circle cx="456" cy="270" r="60"/>
    <circle cx="456" cy="330" r="60"/>
    <circle cx="196" cy="120" r="60"/>
    <circle cx="404" cy="120" r="60"/>
    <circle cx="196" cy="480" r="60"/>
    <circle cx="404" cy="480" r="60"/>
    <circle cx="300" cy="60" r="60"/>
    <circle cx="300" cy="540" r="60"/>
    <circle cx="92" cy="300" r="60"/>
    <circle cx="508" cy="300" r="60"/>
    <circle cx="300" cy="300" r="240" stroke-width="2"/>
  </g>
</svg>
