<svg xmlns="http://www.w3.org/2000/svg" viewBox="0 0 64 64" width="64" height="64">
  <defs>
    <linearGradient id="fbg" x1="0%" y1="0%" x2="100%" y2="100%">
      <stop offset="0%" stop-color="#78c8a0"/>
      <stop offset="45%" stop-color="#4a9e80"/>
      <stop offset="100%" stop-color="#1e4f4f"/>
    </linearGradient>
    <radialGradient id="fgl" cx="50%" cy="62%" r="22%">
      <stop offset="0%" stop-color="#ffffff" stop-opacity="1"/>
      <stop offset="50%" stop-color="#ffd860" stop-opacity="0.6"/>
      <stop offset="100%" stop-color="#d4a843" stop-opacity="0"/>
    </radialGradient>
    <linearGradient id="fb" x1="50%" y1="0%" x2="50%" y2="100%">
      <stop offset="0%" stop-color="#e8f6ee" stop-opacity="0.90"/>
      <stop offset="50%" stop-color="#b0d8c0" stop-opacity="0.55"/>
      <stop offset="100%" stop-color="#78b898" stop-opacity="0.18"/>
    </linearGradient>
    <linearGradient id="fal" x1="80%" y1="10%" x2="20%" y2="90%">
      <stop offset="0%" stop-color="#ffffff" stop-opacity="0.80"/>
      <stop offset="100%" stop-color="#78b898" stop-opacity="0.15"/>
    </linearGradient>
    <linearGradient id="far" x1="20%" y1="10%" x2="80%" y2="90%">
      <stop offset="0%" stop-color="#ffffff" stop-opacity="0.76"/>
      <stop offset="100%" stop-color="#78b898" stop-opacity="0.12"/>
    </linearGradient>
    <radialGradient id="fh" cx="42%" cy="38%" r="55%">
      <stop offset="0%" stop-color="#ffffff" stop-opacity="0.97"/>
      <stop offset="100%" stop-color="#a0d4b8" stop-opacity="0.75"/>
    </radialGradient>
    <filter id="fs" x="-8%" y="-8%" width="116%" height="116%">
      <feGaussianBlur in="SourceGraphic" stdDeviation="0.5"/>
    </filter>
    <filter id="fg" x="-50%" y="-50%" width="200%" height="200%">
      <feGaussianBlur in="SourceGraphic" stdDeviation="3.5"/>
    </filter>
    <filter id="fc" x="-30%" y="-30%" width="160%" height="160%">
      <feGaussianBlur in="SourceGraphic" stdDeviation="1.2"/>
    </filter>
  </defs>

  <rect width="64" height="64" rx="14" fill="url(#fbg)"/>
  <ellipse cx="32" cy="39" rx="16" ry="14" fill="url(#fgl)" filter="url(#fg)"/>

  <g filter="url(#fs)">
    <path d="M32,25 C30,25.8 27.5,27.5 26.5,30 C25.5,33 25,35.5 25.5,38.5 C26,40.5 27,42 28.5,43.5 C30,44.8 31.2,45.5 32,46 C32.8,45.5 34,44.8 35.5,43.5 C37,42 38,40.5 38.5,38.5 C39,35.5 38.5,33 37.5,30 C36.5,27.5 34,25.8 32,25Z" fill="url(#fb)"/>
    <path d="M30,26.5 C28.5,27.2 26.5,29 25.5,31.5 C24.5,34 24.5,36.5 25.5,38.5 C26.5,40 27.5,40.5 28.8,40 C29.8,39.5 30.5,38 30.5,36.5 C30.5,35.5 30.3,34 30.2,32.5 C30,31 30,28.5 30,26.5Z" fill="url(#fal)"/>
    <path d="M34,26.5 C35.5,27.2 37.5,29 38.5,31.5 C39.5,34 39.5,36.5 38.5,38.5 C37.5,40 36.5,40.5 35.2,40 C34.2,39.5 33.5,38 33.5,36.5 C33.5,35.5 33.7,34 33.8,32.5 C34,31 34,28.5 34,26.5Z" fill="url(#far)"/>
  </g>

  <circle cx="31.5" cy="20" r="5.2" fill="url(#fh)"/>
  <path d="M30.5,23 Q31.5,24.2 33,23.2" fill="none" stroke="rgba(255,255,255,0.30)" stroke-width="0.8" stroke-linecap="round"/>

  <ellipse cx="32" cy="38" rx="3.5" ry="3.2" fill="#fffbe0" opacity="0.80" filter="url(#fc)"/>
  <ellipse cx="32" cy="38" rx="1.8" ry="1.7" fill="#fff8d0" opacity="0.92"/>
  <circle cx="32" cy="37.8" r="0.8" fill="#ffffff" opacity="0.97"/>
</svg>
