<svg xmlns="http://www.w3.org/2000/svg" viewBox="0 0 64 64" width="64" height="64">
  <defs>
    <linearGradient id="fbg" x1="0%" y1="0%" x2="100%" y2="100%">
      <stop offset="0%" stop-color="#8ec4a5"/>
      <stop offset="50%" stop-color="#5a9a82"/>
      <stop offset="100%" stop-color="#264f4f"/>
    </linearGradient>
    <radialGradient id="fglow" cx="50%" cy="60%" r="25%">
      <stop offset="0%" stop-color="#fffcef" stop-opacity="1"/>
      <stop offset="40%" stop-color="#ffe8a0" stop-opacity="0.8"/>
      <stop offset="100%" stop-color="#d4a843" stop-opacity="0"/>
    </radialGradient>
    <linearGradient id="ffig" x1="50%" y1="0%" x2="50%" y2="100%">
      <stop offset="0%" stop-color="#ffffff" stop-opacity="0.95"/>
      <stop offset="100%" stop-color="#7ab393" stop-opacity="0.30"/>
    </linearGradient>
    <filter id="fs" x="-15%" y="-15%" width="130%" height="130%">
      <feGaussianBlur in="SourceGraphic" stdDeviation="0.6"/>
    </filter>
    <filter id="fg" x="-50%" y="-50%" width="200%" height="200%">
      <feGaussianBlur in="SourceGraphic" stdDeviation="3.5"/>
    </filter>
  </defs>
  <rect width="64" height="64" rx="14" fill="url(#fbg)"/>
  <ellipse cx="32" cy="37" rx="16" ry="14" fill="url(#fglow)" filter="url(#fg)"/>
  <g filter="url(#fs)">
    <circle cx="32" cy="19.5" r="4.8" fill="url(#ffig)"/>
    <path d="M32,24 C29.5,25.5 26,28.5 25,31.5 C24,35 24.5,38 26,40.5 C27.5,42.5 30,44 32,44.5 C34,44 36.5,42.5 38,40.5 C39.5,38 40,35 39,31.5 C38,28.5 34.5,25.5 32,24Z" fill="url(#ffig)" opacity="0.72"/>
    <path d="M28.5,29 C27,31 25.8,33.5 26.2,36 C26.4,37.5 27.5,38.5 28.8,38.5" fill="none" stroke="rgba(255,255,255,0.45)" stroke-width="2" stroke-linecap="round"/>
    <path d="M35.5,29 C37,31 38.2,33.5 37.8,36 C37.6,37.5 36.5,38.5 35.2,38.5" fill="none" stroke="rgba(255,255,255,0.45)" stroke-width="2" stroke-linecap="round"/>
  </g>
  <ellipse cx="32" cy="36.5" rx="3.5" ry="3.2" fill="#fffdf0" opacity="0.88"/>
  <ellipse cx="32" cy="36.5" rx="1.5" ry="1.4" fill="#ffffff" opacity="0.95"/>
</svg>
