<svg xmlns="http://www.w3.org/2000/svg" viewBox="0 0 200 60" width="200" height="60">
  <defs>
    <linearGradient id="logoGrad" x1="0%" y1="0%" x2="100%" y2="100%">
      <stop offset="0%" style="stop-color:#7FAF9B"/>
      <stop offset="50%" style="stop-color:#6B9A88"/>
      <stop offset="100%" style="stop-color:#5A8A7A"/>
    </linearGradient>
  </defs>
  <g transform="translate(5, 10)">
    <circle cx="20" cy="20" r="18" fill="url(#logoGrad)" opacity="0.2"/>
    <path 
      d="M20 36c-0.9 0-1.7-.3-2.4-.8C10 28 8 24 8 19c0-4 3.3-7.3 7.3-7.3 2.3 0 4.3 1 4.7 2.6.4-1.6 2.4-2.6 4.7-2.6 4 0 7.3 3.3 7.3 7.3 0 5-2 9-9.6 16.2-.7.5-1.5.8-2.4.8z" 
      fill="url(#logoGrad)"
    />
    <path 
      d="M12 20c0-5 8-7 8-2s8-2 8 2" 
      stroke="#fff" 
      stroke-width="1.5" 
      fill="none" 
      opacity="0.7"
      stroke-linecap="round"
    />
  </g>
  <text x="50" y="38" font-family="Playfair Display, Georgia, serif" font-size="20" font-weight="600" fill="#2D3E36">
    Genuine Love
  </text>
</svg>
