<svg xmlns="http://www.w3.org/2000/svg" viewBox="0 0 280 60" width="280" height="60">
  <defs>
    <linearGradient id="lbg" x1="0%" y1="0%" x2="100%" y2="100%">
      <stop offset="0%" stop-color="#8ec4a5"/>
      <stop offset="50%" stop-color="#5a9a82"/>
      <stop offset="100%" stop-color="#264f4f"/>
    </linearGradient>
    <radialGradient id="lglow" cx="50%" cy="58%" r="24%">
      <stop offset="0%" stop-color="#fffcef" stop-opacity="0.95"/>
      <stop offset="60%" stop-color="#d4a843" stop-opacity="0.4"/>
      <stop offset="100%" stop-color="#d4a843" stop-opacity="0"/>
    </radialGradient>
    <linearGradient id="lfig" x1="50%" y1="0%" x2="50%" y2="100%">
      <stop offset="0%" stop-color="#ffffff" stop-opacity="0.9"/>
      <stop offset="100%" stop-color="#7ab393" stop-opacity="0.3"/>
    </linearGradient>
    <filter id="ls" x="-20%" y="-20%" width="140%" height="140%">
      <feGaussianBlur in="SourceGraphic" stdDeviation="0.5"/>
    </filter>
    <filter id="lg" x="-50%" y="-50%" width="200%" height="200%">
      <feGaussianBlur in="SourceGraphic" stdDeviation="2"/>
    </filter>
  </defs>
  <g transform="translate(5, 5)">
    <rect width="50" height="50" rx="11" fill="url(#lbg)"/>
    <ellipse cx="25" cy="29" rx="10" ry="9" fill="url(#lglow)" filter="url(#lg)"/>
    <g filter="url(#ls)">
      <circle cx="25" cy="15" r="3.5" fill="url(#lfig)"/>
      <path d="M25,18 C23,20 20,23 19,26 C18,29 19,32 20,34 C21.5,36 23,37 25,37.5 C27,37 28.5,36 30,34 C31,32 32,29 31,26 C30,23 27,20 25,18Z" fill="url(#lfig)" opacity="0.65"/>
      <path d="M22,23 C20.5,25 19.5,27 20,29.5 C20.3,30.8 21.5,31.5 22.5,31" fill="none" stroke="rgba(255,255,255,0.35)" stroke-width="1.4" stroke-linecap="round"/>
      <path d="M28,23 C29.5,25 30.5,27 30,29.5 C29.7,30.8 28.5,31.5 27.5,31" fill="none" stroke="rgba(255,255,255,0.35)" stroke-width="1.4" stroke-linecap="round"/>
    </g>
    <ellipse cx="25" cy="28" rx="2.2" ry="2" fill="#fffdf0" opacity="0.88"/>
    <ellipse cx="25" cy="28" rx="1" ry="0.9" fill="#ffffff" opacity="0.95"/>
  </g>
  <text x="64" y="28" font-family="'Playfair Display', Georgia, serif" font-size="17" font-weight="700" fill="#264f4f">MyMentalHealthBuddy</text>
  <text x="64" y="44" font-family="'Inter', sans-serif" font-size="9" font-weight="500" fill="#7ab393" letter-spacing="1.8">BY THE GENUINE LOVE PROJECT</text>
</svg>
