<svg xmlns="http://www.w3.org/2000/svg" viewBox="0 0 512 512" width="512" height="512">
  <defs>
    <linearGradient id="bg-d" x1="0%" y1="0%" x2="100%" y2="100%">
      <stop offset="0%" stop-color="#142e42"/>
      <stop offset="35%" stop-color="#0e2232"/>
      <stop offset="100%" stop-color="#081820"/>
    </linearGradient>
    <radialGradient id="bg-shine-d" cx="35%" cy="30%" r="55%">
      <stop offset="0%" stop-color="#1a4860" stop-opacity="0.32"/>
      <stop offset="100%" stop-color="#081820" stop-opacity="0"/>
    </radialGradient>

    <radialGradient id="glow-amb-d" cx="50%" cy="62%" r="34%">
      <stop offset="0%" stop-color="#ffe8a0" stop-opacity="0.48"/>
      <stop offset="40%" stop-color="#dab24c" stop-opacity="0.16"/>
      <stop offset="100%" stop-color="#081820" stop-opacity="0"/>
    </radialGradient>
    <radialGradient id="glow-mid-d" cx="50%" cy="62%" r="17%">
      <stop offset="0%" stop-color="#fff8e0" stop-opacity="0.94"/>
      <stop offset="50%" stop-color="#ffd860" stop-opacity="0.55"/>
      <stop offset="100%" stop-color="#dab24c" stop-opacity="0"/>
    </radialGradient>

    <radialGradient id="head-d" cx="42%" cy="38%" r="58%">
      <stop offset="0%" stop-color="#88d4b0" stop-opacity="0.92"/>
      <stop offset="50%" stop-color="#58b088" stop-opacity="0.78"/>
      <stop offset="100%" stop-color="#388868" stop-opacity="0.60"/>
    </radialGradient>

    <linearGradient id="body-d" x1="50%" y1="0%" x2="50%" y2="100%">
      <stop offset="0%" stop-color="#60b090" stop-opacity="0.80"/>
      <stop offset="35%" stop-color="#489078" stop-opacity="0.55"/>
      <stop offset="70%" stop-color="#307058" stop-opacity="0.32"/>
      <stop offset="100%" stop-color="#1a4040" stop-opacity="0.12"/>
    </linearGradient>
    <linearGradient id="arm-l-d" x1="90%" y1="10%" x2="10%" y2="90%">
      <stop offset="0%" stop-color="#70c0a0" stop-opacity="0.72"/>
      <stop offset="50%" stop-color="#489078" stop-opacity="0.45"/>
      <stop offset="100%" stop-color="#2a6050" stop-opacity="0.15"/>
    </linearGradient>
    <linearGradient id="arm-r-d" x1="10%" y1="10%" x2="90%" y2="90%">
      <stop offset="0%" stop-color="#70c0a0" stop-opacity="0.68"/>
      <stop offset="50%" stop-color="#489078" stop-opacity="0.42"/>
      <stop offset="100%" stop-color="#2a6050" stop-opacity="0.12"/>
    </linearGradient>

    <linearGradient id="arc-d" x1="0%" y1="0%" x2="100%" y2="100%">
      <stop offset="0%" stop-color="#38a078" stop-opacity="0.30"/>
      <stop offset="100%" stop-color="#1a6858" stop-opacity="0.08"/>
    </linearGradient>

    <filter id="sb-d" x="-5%" y="-5%" width="110%" height="110%">
      <feGaussianBlur in="SourceGraphic" stdDeviation="2"/>
    </filter>
    <filter id="sa-d" x="-6%" y="-6%" width="112%" height="112%">
      <feGaussianBlur in="SourceGraphic" stdDeviation="1.5"/>
    </filter>
    <filter id="bw-d" x="-70%" y="-70%" width="240%" height="240%">
      <feGaussianBlur in="SourceGraphic" stdDeviation="28"/>
    </filter>
    <filter id="bm-d" x="-50%" y="-50%" width="200%" height="200%">
      <feGaussianBlur in="SourceGraphic" stdDeviation="13"/>
    </filter>
    <filter id="bh-d" x="-40%" y="-40%" width="180%" height="180%">
      <feGaussianBlur in="SourceGraphic" stdDeviation="6"/>
    </filter>
    <filter id="sh-d" x="-8%" y="-8%" width="116%" height="116%">
      <feGaussianBlur in="SourceGraphic" stdDeviation="1"/>
    </filter>
    <filter id="ab-d" x="-10%" y="-10%" width="120%" height="120%">
      <feGaussianBlur in="SourceGraphic" stdDeviation="1.2"/>
    </filter>
    <filter id="star-d" x="-50%" y="-50%" width="200%" height="200%">
      <feGaussianBlur in="SourceGraphic" stdDeviation="4"/>
    </filter>
  </defs>

  <rect width="512" height="512" rx="112" fill="url(#bg-d)"/>
  <rect width="512" height="512" rx="112" fill="url(#bg-shine-d)"/>

  <g filter="url(#ab-d)" opacity="0.38">
    <circle cx="256" cy="300" r="130" fill="none" stroke="url(#arc-d)" stroke-width="1.8"/>
    <circle cx="256" cy="300" r="105" fill="none" stroke="url(#arc-d)" stroke-width="1.2"/>
    <path d="M160,230 A120,120 0 0,1 352,230" fill="none" stroke="url(#arc-d)" stroke-width="1.5" stroke-linecap="round"/>
    <path d="M175,370 A110,80 0 0,0 337,370" fill="none" stroke="url(#arc-d)" stroke-width="1"/>
  </g>

  <ellipse cx="256" cy="310" rx="190" ry="165" fill="url(#glow-amb-d)" filter="url(#bw-d)"/>
  <ellipse cx="256" cy="308" rx="95" ry="85" fill="url(#glow-mid-d)" filter="url(#bm-d)"/>

  <g filter="url(#sb-d)">
    <path d="M256,200 C240,204 218,216 206,236 C192,260 186,288 192,314 C196,334 208,352 224,366 C236,376 248,382 256,384 C264,382 276,376 288,366 C304,352 316,334 320,314 C326,288 320,260 306,236 C294,216 272,204 256,200Z" fill="url(#body-d)"/>
  </g>

  <g filter="url(#sa-d)">
    <path d="M238,214 C224,220 208,236 198,258 C188,280 186,302 194,318 C202,332 214,336 226,330 C236,324 242,312 244,298 C246,286 244,270 242,254 C240,240 238,226 238,214Z" fill="url(#arm-l-d)"/>
    <path d="M274,214 C288,220 304,236 314,258 C324,280 326,302 318,318 C310,332 298,336 286,330 C276,324 270,312 268,298 C266,286 268,270 270,254 C272,240 274,226 274,214Z" fill="url(#arm-r-d)"/>
  </g>

  <g opacity="0.28" filter="url(#sb-d)">
    <path d="M232,362 C242,374 250,380 256,382 C262,380 270,374 280,362 C290,350 298,336 302,322 L256,340 L210,322 C214,336 222,350 232,362Z" fill="rgba(72,184,140,0.40)"/>
  </g>

  <g filter="url(#sh-d)">
    <circle cx="253" cy="160" r="40" fill="url(#head-d)"/>
  </g>
  <circle cx="244" cy="150" r="4.5" fill="rgba(136,212,176,0.42)"/>
  <circle cx="264" cy="153" r="3" fill="rgba(136,212,176,0.28)"/>
  <path d="M245,172 Q253,178 262,173" fill="none" stroke="rgba(136,212,176,0.32)" stroke-width="2.2" stroke-linecap="round"/>

  <line x1="256" y1="270" x2="256" y2="342" stroke="#fffbe0" stroke-width="1.8" opacity="0.16" filter="url(#star-d)"/>
  <line x1="220" y1="306" x2="292" y2="306" stroke="#fffbe0" stroke-width="1.8" opacity="0.16" filter="url(#star-d)"/>

  <ellipse cx="256" cy="306" rx="30" ry="28" fill="#fffbe0" opacity="0.78" filter="url(#bh-d)"/>
  <ellipse cx="256" cy="306" rx="16" ry="15" fill="#fff8d0" opacity="0.92"/>
  <ellipse cx="256" cy="306" rx="7.5" ry="7" fill="#ffffff" opacity="0.97"/>
  <circle cx="256" cy="305" r="3" fill="#ffffff"/>

  <g opacity="0.20">
    <circle cx="180" cy="180" r="2.5" fill="#48b88c"/>
    <circle cx="340" cy="195" r="2" fill="#38a07a"/>
    <circle cx="155" cy="310" r="1.8" fill="#309870"/>
    <circle cx="360" cy="330" r="2.2" fill="#40a880"/>
    <circle cx="200" cy="400" r="1.5" fill="#289068"/>
    <circle cx="320" cy="410" r="1.8" fill="#309870"/>
  </g>
</svg>
