<svg xmlns="http://www.w3.org/2000/svg" viewBox="0 0 512 512" width="512" height="512">
  <defs>
    <linearGradient id="bg-d" x1="0%" y1="0%" x2="100%" y2="100%">
      <stop offset="0%" stop-color="#1a3548"/>
      <stop offset="35%" stop-color="#122838"/>
      <stop offset="100%" stop-color="#0a1c28"/>
    </linearGradient>
    <radialGradient id="bg-aura-d" cx="48%" cy="48%" r="55%">
      <stop offset="0%" stop-color="#1e4e60" stop-opacity="0.40"/>
      <stop offset="60%" stop-color="#12303e" stop-opacity="0.12"/>
      <stop offset="100%" stop-color="#0a1c28" stop-opacity="0"/>
    </radialGradient>

    <radialGradient id="glow-ambient-d" cx="50%" cy="60%" r="38%">
      <stop offset="0%" stop-color="#ffe8a0" stop-opacity="0.42"/>
      <stop offset="35%" stop-color="#d4a843" stop-opacity="0.15"/>
      <stop offset="100%" stop-color="#0a1c28" stop-opacity="0"/>
    </radialGradient>
    <radialGradient id="glow-mid-d" cx="50%" cy="60%" r="20%">
      <stop offset="0%" stop-color="#fff5d0" stop-opacity="0.92"/>
      <stop offset="40%" stop-color="#ffe088" stop-opacity="0.55"/>
      <stop offset="100%" stop-color="#d4a843" stop-opacity="0"/>
    </radialGradient>
    <radialGradient id="glow-hot-d" cx="50%" cy="60%" r="9%">
      <stop offset="0%" stop-color="#ffffff" stop-opacity="1"/>
      <stop offset="50%" stop-color="#fffcef" stop-opacity="0.95"/>
      <stop offset="100%" stop-color="#ffe8a0" stop-opacity="0"/>
    </radialGradient>

    <linearGradient id="body-grad-d" x1="50%" y1="0%" x2="50%" y2="100%">
      <stop offset="0%" stop-color="#7ab393" stop-opacity="0.78"/>
      <stop offset="30%" stop-color="#5a9a80" stop-opacity="0.52"/>
      <stop offset="60%" stop-color="#3e7a68" stop-opacity="0.32"/>
      <stop offset="100%" stop-color="#264f4f" stop-opacity="0.12"/>
    </linearGradient>
    <linearGradient id="arm-grad-l-d" x1="100%" y1="0%" x2="0%" y2="100%">
      <stop offset="0%" stop-color="#8ec4a5" stop-opacity="0.70"/>
      <stop offset="40%" stop-color="#5a9a80" stop-opacity="0.45"/>
      <stop offset="100%" stop-color="#3a7060" stop-opacity="0.14"/>
    </linearGradient>
    <linearGradient id="arm-grad-r-d" x1="0%" y1="0%" x2="100%" y2="100%">
      <stop offset="0%" stop-color="#8ec4a5" stop-opacity="0.66"/>
      <stop offset="40%" stop-color="#5a9a80" stop-opacity="0.42"/>
      <stop offset="100%" stop-color="#3a7060" stop-opacity="0.12"/>
    </linearGradient>
    <radialGradient id="head-grad-d" cx="45%" cy="35%" r="55%">
      <stop offset="0%" stop-color="#a8d8b8" stop-opacity="0.92"/>
      <stop offset="60%" stop-color="#78b495" stop-opacity="0.72"/>
      <stop offset="100%" stop-color="#5a9a80" stop-opacity="0.55"/>
    </radialGradient>

    <filter id="soft-body-d" x="-6%" y="-6%" width="112%" height="112%">
      <feGaussianBlur in="SourceGraphic" stdDeviation="2.8"/>
    </filter>
    <filter id="soft-arm-d" x="-8%" y="-8%" width="116%" height="116%">
      <feGaussianBlur in="SourceGraphic" stdDeviation="2"/>
    </filter>
    <filter id="bloom-wide-d" x="-80%" y="-80%" width="260%" height="260%">
      <feGaussianBlur in="SourceGraphic" stdDeviation="30"/>
    </filter>
    <filter id="bloom-mid-d" x="-60%" y="-60%" width="220%" height="220%">
      <feGaussianBlur in="SourceGraphic" stdDeviation="15"/>
    </filter>
    <filter id="bloom-hot-d" x="-50%" y="-50%" width="200%" height="200%">
      <feGaussianBlur in="SourceGraphic" stdDeviation="7"/>
    </filter>
    <filter id="soft-head-d" x="-12%" y="-12%" width="124%" height="124%">
      <feGaussianBlur in="SourceGraphic" stdDeviation="1.5"/>
    </filter>
    <filter id="star-ray" x="-60%" y="-60%" width="220%" height="220%">
      <feGaussianBlur in="SourceGraphic" stdDeviation="4.5"/>
    </filter>
    <filter id="highlight-d" x="-20%" y="-20%" width="140%" height="140%">
      <feGaussianBlur in="SourceGraphic" stdDeviation="3"/>
    </filter>
  </defs>

  <rect width="512" height="512" rx="112" fill="url(#bg-d)"/>
  <rect width="512" height="512" rx="112" fill="url(#bg-aura-d)"/>

  <ellipse cx="256" cy="308" rx="210" ry="180" fill="url(#glow-ambient-d)" filter="url(#bloom-wide-d)"/>
  <ellipse cx="256" cy="305" rx="105" ry="95" fill="url(#glow-mid-d)" filter="url(#bloom-mid-d)"/>

  <g filter="url(#soft-body-d)">
    <path d="
      M256,192
      C238,196 212,212 198,238
      C182,268 176,302 184,332
      C190,355 204,374 222,388
      C238,400 248,406 256,408
      C264,406 274,400 290,388
      C308,374 322,355 328,332
      C336,302 330,268 314,238
      C300,212 274,196 256,192Z
    " fill="url(#body-grad-d)"/>
  </g>

  <g filter="url(#soft-arm-d)">
    <path d="
      M238,208
      C222,216 204,234 192,258
      C180,282 176,306 184,324
      C192,340 206,346 220,340
      C232,334 240,320 244,304
      C246,292 245,276 242,260
      C240,244 238,224 238,208Z
    " fill="url(#arm-grad-l-d)"/>
    <path d="
      M274,208
      C290,216 308,234 320,258
      C332,282 336,306 328,324
      C320,340 306,346 292,340
      C280,334 272,320 268,304
      C266,292 267,276 270,260
      C272,244 274,224 274,208Z
    " fill="url(#arm-grad-r-d)"/>
  </g>

  <g filter="url(#soft-body-d)" opacity="0.35">
    <path d="
      M228,375
      C240,390 250,400 256,404
      C262,400 272,390 284,375
      C296,358 304,340 308,326
      L256,350
      L204,326
      C208,340 216,358 228,375Z
    " fill="rgba(122,179,147,0.4)"/>
  </g>

  <g filter="url(#soft-head-d)">
    <circle cx="252" cy="158" r="36" fill="url(#head-grad-d)"/>
  </g>
  <circle cx="246" cy="150" r="7" fill="rgba(168,216,184,0.25)" filter="url(#highlight-d)"/>

  <line x1="256" y1="264" x2="256" y2="340" stroke="#fffbe0" stroke-width="2" opacity="0.18" filter="url(#star-ray)"/>
  <line x1="218" y1="302" x2="294" y2="302" stroke="#fffbe0" stroke-width="2" opacity="0.18" filter="url(#star-ray)"/>

  <ellipse cx="256" cy="302" rx="32" ry="30" fill="#fffbe0" opacity="0.80" filter="url(#bloom-hot-d)"/>
  <ellipse cx="256" cy="302" rx="17" ry="16" fill="#fff8d0" opacity="0.92"/>
  <ellipse cx="256" cy="302" rx="9" ry="8.5" fill="#ffffff" opacity="0.97"/>
  <circle cx="256" cy="301" r="3.5" fill="#ffffff"/>
</svg>
