<svg xmlns="http://www.w3.org/2000/svg" viewBox="0 0 512 512" width="512" height="512">
  <defs>
    <linearGradient id="bg" x1="0%" y1="0%" x2="100%" y2="100%">
      <stop offset="0%" stop-color="#3dd896"/>
      <stop offset="20%" stop-color="#28b87a"/>
      <stop offset="55%" stop-color="#145050"/>
      <stop offset="100%" stop-color="#0a3535"/>
    </linearGradient>
    <radialGradient id="bg-shine" cx="25%" cy="18%" r="65%">
      <stop offset="0%" stop-color="#78ecc0" stop-opacity="0.15"/>
      <stop offset="45%" stop-color="#28b87a" stop-opacity="0.05"/>
      <stop offset="100%" stop-color="#0a3535" stop-opacity="0"/>
    </radialGradient>
    <radialGradient id="bg-violet" cx="75%" cy="78%" r="38%">
      <stop offset="0%" stop-color="#7d6bc4" stop-opacity="0.14"/>
      <stop offset="100%" stop-color="#0a3535" stop-opacity="0"/>
    </radialGradient>
    <radialGradient id="bg-gold-ambient" cx="50%" cy="55%" r="35%">
      <stop offset="0%" stop-color="#c9952e" stop-opacity="0.08"/>
      <stop offset="100%" stop-color="#0a3535" stop-opacity="0"/>
    </radialGradient>

    <radialGradient id="glow-heart" cx="50%" cy="56%" r="30%">
      <stop offset="0%" stop-color="#ffe0a0" stop-opacity="0.65"/>
      <stop offset="25%" stop-color="#c9952e" stop-opacity="0.35"/>
      <stop offset="100%" stop-color="#0a3535" stop-opacity="0"/>
    </radialGradient>
    <radialGradient id="glow-core" cx="50%" cy="56%" r="12%">
      <stop offset="0%" stop-color="#fffae4" stop-opacity="0.98"/>
      <stop offset="35%" stop-color="#ffd460" stop-opacity="0.70"/>
      <stop offset="100%" stop-color="#c9952e" stop-opacity="0"/>
    </radialGradient>
    <radialGradient id="glow-crown" cx="50%" cy="20%" r="28%">
      <stop offset="0%" stop-color="#b8a8e8" stop-opacity="0.20"/>
      <stop offset="45%" stop-color="#7d6bc4" stop-opacity="0.08"/>
      <stop offset="100%" stop-color="#0a3535" stop-opacity="0"/>
    </radialGradient>
    <radialGradient id="glow-halo" cx="50%" cy="25%" r="20%">
      <stop offset="0%" stop-color="#ffe498" stop-opacity="0.22"/>
      <stop offset="100%" stop-color="#c9952e" stop-opacity="0"/>
    </radialGradient>

    <radialGradient id="head-fill" cx="42%" cy="32%" r="58%">
      <stop offset="0%" stop-color="#ffffff" stop-opacity="0.98"/>
      <stop offset="35%" stop-color="#d0f0e4" stop-opacity="0.96"/>
      <stop offset="75%" stop-color="#88d8b8" stop-opacity="0.88"/>
      <stop offset="100%" stop-color="#58c8a0" stop-opacity="0.72"/>
    </radialGradient>

    <linearGradient id="body-fill" x1="50%" y1="0%" x2="50%" y2="100%">
      <stop offset="0%" stop-color="#e0f6ec" stop-opacity="0.96"/>
      <stop offset="20%" stop-color="#a8e4c8" stop-opacity="0.82"/>
      <stop offset="55%" stop-color="#60c4a0" stop-opacity="0.55"/>
      <stop offset="100%" stop-color="#28b87a" stop-opacity="0.15"/>
    </linearGradient>
    <linearGradient id="arm-l" x1="88%" y1="8%" x2="12%" y2="92%">
      <stop offset="0%" stop-color="#ffffff" stop-opacity="0.92"/>
      <stop offset="45%" stop-color="#b0e8d0" stop-opacity="0.65"/>
      <stop offset="100%" stop-color="#60b490" stop-opacity="0.20"/>
    </linearGradient>
    <linearGradient id="arm-r" x1="12%" y1="8%" x2="88%" y2="92%">
      <stop offset="0%" stop-color="#ffffff" stop-opacity="0.88"/>
      <stop offset="45%" stop-color="#b0e8d0" stop-opacity="0.60"/>
      <stop offset="100%" stop-color="#60b490" stop-opacity="0.18"/>
    </linearGradient>

    <linearGradient id="arc-emerald" x1="0%" y1="0%" x2="100%" y2="100%">
      <stop offset="0%" stop-color="#78ecc0" stop-opacity="0.32"/>
      <stop offset="100%" stop-color="#28b87a" stop-opacity="0.08"/>
    </linearGradient>
    <linearGradient id="arc-violet" x1="0%" y1="0%" x2="100%" y2="100%">
      <stop offset="0%" stop-color="#a090d8" stop-opacity="0.30"/>
      <stop offset="100%" stop-color="#7d6bc4" stop-opacity="0.06"/>
    </linearGradient>
    <linearGradient id="arc-gold" x1="0%" y1="0%" x2="100%" y2="100%">
      <stop offset="0%" stop-color="#c9952e" stop-opacity="0.24"/>
      <stop offset="100%" stop-color="#ffe0a0" stop-opacity="0.06"/>
    </linearGradient>
    <linearGradient id="arc-rose" x1="0%" y1="0%" x2="100%" y2="0%">
      <stop offset="0%" stop-color="#d99585" stop-opacity="0.22"/>
      <stop offset="100%" stop-color="#d99585" stop-opacity="0.04"/>
    </linearGradient>

    <filter id="soft-body" x="-5%" y="-5%" width="110%" height="110%">
      <feGaussianBlur in="SourceGraphic" stdDeviation="1.8"/>
    </filter>
    <filter id="soft-arm" x="-6%" y="-6%" width="112%" height="112%">
      <feGaussianBlur in="SourceGraphic" stdDeviation="1.2"/>
    </filter>
    <filter id="bloom-w" x="-70%" y="-70%" width="240%" height="240%">
      <feGaussianBlur in="SourceGraphic" stdDeviation="22"/>
    </filter>
    <filter id="bloom-m" x="-50%" y="-50%" width="200%" height="200%">
      <feGaussianBlur in="SourceGraphic" stdDeviation="10"/>
    </filter>
    <filter id="bloom-h" x="-40%" y="-40%" width="180%" height="180%">
      <feGaussianBlur in="SourceGraphic" stdDeviation="4"/>
    </filter>
    <filter id="soft-head" x="-8%" y="-8%" width="116%" height="116%">
      <feGaussianBlur in="SourceGraphic" stdDeviation="0.8"/>
    </filter>
    <filter id="arc-blur" x="-10%" y="-10%" width="120%" height="120%">
      <feGaussianBlur in="SourceGraphic" stdDeviation="1.0"/>
    </filter>
    <filter id="particle-glow" x="-100%" y="-100%" width="300%" height="300%">
      <feGaussianBlur in="SourceGraphic" stdDeviation="2.2"/>
    </filter>
    <filter id="halo-blur" x="-30%" y="-30%" width="160%" height="160%">
      <feGaussianBlur in="SourceGraphic" stdDeviation="2.5"/>
    </filter>
    <filter id="eye-glow" x="-80%" y="-80%" width="260%" height="260%">
      <feGaussianBlur in="SourceGraphic" stdDeviation="3"/>
    </filter>
  </defs>

  <rect width="512" height="512" rx="108" fill="url(#bg)"/>
  <rect width="512" height="512" rx="108" fill="url(#bg-shine)"/>
  <rect width="512" height="512" rx="108" fill="url(#bg-violet)"/>
  <rect width="512" height="512" rx="108" fill="url(#bg-gold-ambient)"/>

  <g filter="url(#arc-blur)" opacity="0.38">
    <circle cx="256" cy="285" r="160" fill="none" stroke="url(#arc-emerald)" stroke-width="1.2" stroke-dasharray="5 16"/>
    <circle cx="256" cy="288" r="135" fill="none" stroke="url(#arc-emerald)" stroke-width="1.8"/>
    <circle cx="256" cy="290" r="112" fill="none" stroke="url(#arc-violet)" stroke-width="1.4"/>
    <path d="M148,218 A130,130 0 0,1 364,218" fill="none" stroke="url(#arc-emerald)" stroke-width="1.5" stroke-linecap="round"/>
    <path d="M168,378 A120,88 0 0,0 344,378" fill="none" stroke="url(#arc-emerald)" stroke-width="0.9"/>
  </g>

  <g filter="url(#arc-blur)" opacity="0.28">
    <path d="M130,190 A150,150 0 0,1 382,190" fill="none" stroke="url(#arc-gold)" stroke-width="1.8" stroke-linecap="round"/>
    <path d="M180,388 A110,68 0 0,0 332,388" fill="none" stroke="url(#arc-rose)" stroke-width="1.2"/>
    <circle cx="256" cy="270" r="180" fill="none" stroke="url(#arc-violet)" stroke-width="0.8" stroke-dasharray="3 20"/>
    <path d="M195,115 A85,85 0 0,1 317,115" fill="none" stroke="url(#arc-gold)" stroke-width="0.7" stroke-dasharray="2 10"/>
    <circle cx="256" cy="260" r="200" fill="none" stroke="url(#arc-emerald)" stroke-width="0.5" stroke-dasharray="2 25"/>
  </g>

  <ellipse cx="256" cy="130" rx="100" ry="78" fill="url(#glow-crown)" filter="url(#bloom-w)"/>
  <ellipse cx="256" cy="140" rx="58" ry="42" fill="url(#glow-halo)" filter="url(#halo-blur)"/>
  <ellipse cx="256" cy="300" rx="190" ry="170" fill="url(#glow-heart)" filter="url(#bloom-w)"/>
  <ellipse cx="256" cy="298" rx="90" ry="82" fill="url(#glow-core)" filter="url(#bloom-m)"/>

  <g filter="url(#soft-body)">
    <path d="M256,195 C238,200 214,212 200,234 C186,258 180,288 186,316 C190,338 203,356 220,370 C233,380 246,386 256,388 C266,386 279,380 292,370 C309,356 322,338 326,316 C332,288 326,258 312,234 C298,212 274,200 256,195Z" fill="url(#body-fill)"/>
  </g>

  <g filter="url(#soft-arm)">
    <path d="M234,210 C218,216 201,232 190,256 C180,280 178,304 186,320 C195,336 208,340 220,334 C231,328 238,314 240,298 C242,284 240,266 238,250 C236,236 234,222 234,210Z" fill="url(#arm-l)"/>
    <path d="M278,210 C294,216 311,232 322,256 C332,280 334,304 326,320 C317,336 304,340 292,334 C281,328 274,314 272,298 C270,284 272,266 274,250 C276,236 278,222 278,210Z" fill="url(#arm-r)"/>
  </g>

  <g opacity="0.30" filter="url(#soft-body)">
    <path d="M228,364 C238,376 248,382 256,384 C264,382 274,376 284,364 C294,350 302,336 306,322 L256,340 L206,322 C210,336 218,350 228,364Z" fill="rgba(255,255,255,0.42)"/>
  </g>

  <g filter="url(#soft-head)">
    <circle cx="255" cy="155" r="44" fill="url(#head-fill)"/>
  </g>

  <g filter="url(#eye-glow)">
    <circle cx="242" cy="145" r="6" fill="rgba(255,255,255,0.15)"/>
    <circle cx="268" cy="148" r="5" fill="rgba(255,255,255,0.12)"/>
  </g>
  <circle cx="242" cy="145" r="5.2" fill="rgba(255,255,255,0.58)"/>
  <circle cx="268" cy="148" r="3.8" fill="rgba(255,255,255,0.40)"/>
  <circle cx="241" cy="143" r="1.8" fill="rgba(255,255,255,0.85)"/>
  <circle cx="267" cy="146" r="1.2" fill="rgba(255,255,255,0.70)"/>

  <path d="M242,168 Q255,177 268,169" fill="none" stroke="rgba(255,255,255,0.48)" stroke-width="2.6" stroke-linecap="round"/>
  <path d="M246,171 Q255,175 264,172" fill="none" stroke="rgba(255,255,255,0.25)" stroke-width="1.4" stroke-linecap="round"/>

  <ellipse cx="256" cy="298" rx="32" ry="30" fill="#fffce4" opacity="0.88" filter="url(#bloom-h)"/>
  <ellipse cx="256" cy="298" rx="18" ry="17" fill="#fff8d4" opacity="0.95"/>
  <ellipse cx="256" cy="298" rx="9" ry="8" fill="#ffffff" opacity="0.98"/>
  <circle cx="256" cy="297" r="3.5" fill="#ffffff"/>

  <g opacity="0.35" filter="url(#particle-glow)">
    <circle cx="162" cy="162" r="3.4" fill="#78ecc0"/>
    <circle cx="352" cy="178" r="2.8" fill="#88ecc8"/>
    <circle cx="140" cy="295" r="2.6" fill="#78dcb0"/>
    <circle cx="375" cy="315" r="3.2" fill="#88e4c0"/>
    <circle cx="185" cy="415" r="2.4" fill="#70d4a0"/>
    <circle cx="335" cy="425" r="2.6" fill="#80dcb4"/>
    <circle cx="125" cy="235" r="2.0" fill="#c9952e"/>
    <circle cx="388" cy="245" r="2.2" fill="#c9952e"/>
    <circle cx="195" cy="132" r="1.8" fill="#d99585"/>
    <circle cx="318" cy="122" r="2.0" fill="#d99585"/>
    <circle cx="256" cy="90" r="2.4" fill="#b8a8e8"/>
    <circle cx="175" cy="95" r="1.6" fill="#a090d8"/>
    <circle cx="335" cy="100" r="1.4" fill="#a090d8"/>
    <circle cx="215" cy="435" r="1.8" fill="#90e4c8"/>
    <circle cx="295" cy="440" r="1.6" fill="#88dcc0"/>
  </g>

  <g opacity="0.22">
    <circle cx="175" cy="175" r="2.8" fill="#98f0d4"/>
    <circle cx="345" cy="188" r="2.4" fill="#88ecc0"/>
    <circle cx="148" cy="305" r="2.0" fill="#78dcb0"/>
    <circle cx="365" cy="335" r="2.6" fill="#88e4c0"/>
    <circle cx="195" cy="400" r="1.8" fill="#70d4a0"/>
    <circle cx="325" cy="410" r="2.2" fill="#80dcb4"/>
    <circle cx="135" cy="176" r="1.4" fill="#a898d8"/>
    <circle cx="378" cy="168" r="1.2" fill="#9888c8"/>
    <circle cx="218" cy="82" r="1.0" fill="#d0c0e8"/>
    <circle cx="294" cy="78" r="0.8" fill="#c8b8e0"/>
  </g>
</svg>
