<svg xmlns="http://www.w3.org/2000/svg" viewBox="0 0 512 512" width="512" height="512">
  <defs>
    <radialGradient id="glow-a-t" cx="50%" cy="62%" r="32%">
      <stop offset="0%" stop-color="#ffe8a0" stop-opacity="0.46"/>
      <stop offset="40%" stop-color="#dab24c" stop-opacity="0.16"/>
      <stop offset="100%" stop-color="#dab24c" stop-opacity="0"/>
    </radialGradient>
    <radialGradient id="glow-m-t" cx="50%" cy="62%" r="15%">
      <stop offset="0%" stop-color="#fff8e0" stop-opacity="0.92"/>
      <stop offset="50%" stop-color="#ffd860" stop-opacity="0.52"/>
      <stop offset="100%" stop-color="#dab24c" stop-opacity="0"/>
    </radialGradient>
    <radialGradient id="head-t" cx="42%" cy="38%" r="58%">
      <stop offset="0%" stop-color="#a0dcc0" stop-opacity="0.95"/>
      <stop offset="50%" stop-color="#70b894" stop-opacity="0.80"/>
      <stop offset="100%" stop-color="#489870" stop-opacity="0.62"/>
    </radialGradient>
    <linearGradient id="body-t" x1="50%" y1="0%" x2="50%" y2="100%">
      <stop offset="0%" stop-color="#60b090" stop-opacity="0.85"/>
      <stop offset="35%" stop-color="#70c0a0" stop-opacity="0.60"/>
      <stop offset="70%" stop-color="#489078" stop-opacity="0.35"/>
      <stop offset="100%" stop-color="#286050" stop-opacity="0.12"/>
    </linearGradient>
    <linearGradient id="al-t" x1="90%" y1="10%" x2="10%" y2="90%">
      <stop offset="0%" stop-color="#88d4b0" stop-opacity="0.80"/>
      <stop offset="50%" stop-color="#60b090" stop-opacity="0.48"/>
      <stop offset="100%" stop-color="#489078" stop-opacity="0.15"/>
    </linearGradient>
    <linearGradient id="ar-t" x1="10%" y1="10%" x2="90%" y2="90%">
      <stop offset="0%" stop-color="#88d4b0" stop-opacity="0.76"/>
      <stop offset="50%" stop-color="#60b090" stop-opacity="0.44"/>
      <stop offset="100%" stop-color="#489078" stop-opacity="0.12"/>
    </linearGradient>
    <filter id="sb-t" x="-5%" y="-5%" width="110%" height="110%">
      <feGaussianBlur in="SourceGraphic" stdDeviation="1.8"/>
    </filter>
    <filter id="sa-t" x="-6%" y="-6%" width="112%" height="112%">
      <feGaussianBlur in="SourceGraphic" stdDeviation="1.4"/>
    </filter>
    <filter id="bw-t" x="-60%" y="-60%" width="220%" height="220%">
      <feGaussianBlur in="SourceGraphic" stdDeviation="20"/>
    </filter>
    <filter id="bm-t" x="-50%" y="-50%" width="200%" height="200%">
      <feGaussianBlur in="SourceGraphic" stdDeviation="10"/>
    </filter>
    <filter id="bh-t" x="-40%" y="-40%" width="180%" height="180%">
      <feGaussianBlur in="SourceGraphic" stdDeviation="4.5"/>
    </filter>
    <filter id="sh-t" x="-8%" y="-8%" width="116%" height="116%">
      <feGaussianBlur in="SourceGraphic" stdDeviation="0.8"/>
    </filter>
  </defs>

  <ellipse cx="256" cy="310" rx="170" ry="150" fill="url(#glow-a-t)" filter="url(#bw-t)"/>
  <ellipse cx="256" cy="308" rx="85" ry="78" fill="url(#glow-m-t)" filter="url(#bm-t)"/>

  <g filter="url(#sb-t)">
    <path d="M256,200 C240,204 218,216 206,236 C192,260 186,288 192,314 C196,334 208,352 224,366 C236,376 248,382 256,384 C264,382 276,376 288,366 C304,352 316,334 320,314 C326,288 320,260 306,236 C294,216 272,204 256,200Z" fill="url(#body-t)"/>
  </g>

  <g filter="url(#sa-t)">
    <path d="M238,214 C224,220 208,236 198,258 C188,280 186,302 194,318 C202,332 214,336 226,330 C236,324 242,312 244,298 C246,286 244,270 242,254 C240,240 238,226 238,214Z" fill="url(#al-t)"/>
    <path d="M274,214 C288,220 304,236 314,258 C324,280 326,302 318,318 C310,332 298,336 286,330 C276,324 270,312 268,298 C266,286 268,270 270,254 C272,240 274,226 274,214Z" fill="url(#ar-t)"/>
  </g>

  <g opacity="0.30" filter="url(#sb-t)">
    <path d="M232,362 C242,374 250,380 256,382 C262,380 270,374 280,362 C290,350 298,336 302,322 L256,340 L210,322 C214,336 222,350 232,362Z" fill="rgba(72,184,140,0.42)"/>
  </g>

  <g filter="url(#sh-t)">
    <circle cx="253" cy="160" r="40" fill="url(#head-t)"/>
  </g>
  <circle cx="244" cy="150" r="4.5" fill="rgba(136,212,176,0.42)"/>
  <circle cx="264" cy="153" r="3" fill="rgba(136,212,176,0.30)"/>
  <path d="M245,172 Q253,178 262,173" fill="none" stroke="rgba(136,212,176,0.34)" stroke-width="2.2" stroke-linecap="round"/>

  <ellipse cx="256" cy="306" rx="26" ry="24" fill="#fffbe0" opacity="0.80" filter="url(#bh-t)"/>
  <ellipse cx="256" cy="306" rx="14" ry="13" fill="#fff8d0" opacity="0.92"/>
  <ellipse cx="256" cy="306" rx="6.5" ry="6" fill="#ffffff" opacity="0.96"/>
  <circle cx="256" cy="305" r="2.5" fill="#ffffff"/>
</svg>
