<svg xmlns="http://www.w3.org/2000/svg" viewBox="0 0 80 80" width="80" height="80">
  <defs>
    <linearGradient id="bg" x1="0%" y1="0%" x2="100%" y2="100%">
      <stop offset="0%" stop-color="#264f4f"/>
      <stop offset="100%" stop-color="#183535"/>
    </linearGradient>
    <linearGradient id="heartGold" x1="0%" y1="0%" x2="100%" y2="100%">
      <stop offset="0%" stop-color="#DCB96E"/>
      <stop offset="50%" stop-color="#d4a843"/>
      <stop offset="100%" stop-color="#c09530"/>
    </linearGradient>
    <linearGradient id="leafAccent" x1="0%" y1="0%" x2="100%" y2="100%">
      <stop offset="0%" stop-color="#7ab393"/>
      <stop offset="100%" stop-color="#5D9A7F"/>
    </linearGradient>
    <filter id="glow">
      <feGaussianBlur stdDeviation="1.5" result="blur"/>
      <feComposite in="SourceGraphic" in2="blur" operator="over"/>
    </filter>
  </defs>
  <rect width="80" height="80" rx="18" fill="url(#bg)"/>
  <path
    d="M40 58c-1 0-2-.4-2.8-1C27 48.5 22 42.5 22 35.5c0-5 4-9 9-9 2.8 0 5.4 1.3 6.5 3.4.3.5.8.8 1.3.8h2.4c.5 0 1-.3 1.3-.8C43.6 27.8 46.2 26.5 49 26.5c5 0 9 4 9 9 0 7-5 13-15.2 21.5-.8.6-1.8 1-2.8 1z"
    fill="url(#heartGold)"
    filter="url(#glow)"
  />
  <path
    d="M35 38c0 0 3-6 5-6s5 6 5 6"
    stroke="rgba(255,255,255,0.5)"
    stroke-width="1.5"
    fill="none"
    stroke-linecap="round"
  />
  <circle cx="34" cy="33" r="1.2" fill="rgba(255,255,255,0.4)"/>
  <path
    d="M48 44c-2 3-5 5.5-8 7.5"
    stroke="url(#leafAccent)"
    stroke-width="1.8"
    fill="none"
    stroke-linecap="round"
    opacity="0.6"
  />
</svg>
